<?xml version="1.0" encoding="UTF-8" standalone="no"?>
<svg
   xmlns:dc="http://purl.org/dc/elements/1.1/"
   xmlns:cc="http://creativecommons.org/ns#"
   xmlns:rdf="http://www.w3.org/1999/02/22-rdf-syntax-ns#"
   xmlns:svg="http://www.w3.org/2000/svg"
   xmlns="http://www.w3.org/2000/svg"
   xmlns:sodipodi="http://sodipodi.sourceforge.net/DTD/sodipodi-0.dtd"
   xmlns:inkscape="http://www.inkscape.org/namespaces/inkscape"
   sodipodi:docname="logo-small.svg"
   inkscape:version="1.0 (4035a4f, 2020-05-01)"
   id="svg8"
   version="1.1"
   viewBox="0 0 19.84375 19.84375"
   height="75"
   width="75">
  <defs
     id="defs2" />
  <sodipodi:namedview
     inkscape:window-maximized="0"
     inkscape:window-y="25"
     inkscape:window-x="0"
     inkscape:window-height="641"
     inkscape:window-width="1251"
     units="px"
     inkscape:snap-global="false"
     showgrid="false"
     inkscape:document-rotation="0"
     inkscape:current-layer="layer1"
     inkscape:document-units="mm"
     inkscape:cy="141.77243"
     inkscape:cx="194.45801"
     inkscape:zoom="0.87849296"
     inkscape:pageshadow="2"
     inkscape:pageopacity="0.0"
     borderopacity="1.0"
     bordercolor="#666666"
     pagecolor="#ffffff"
     id="base" />
  <metadata
     id="metadata5">
    <rdf:RDF>
      <cc:Work
         rdf:about="">
        <dc:format>image/svg+xml</dc:format>
        <dc:type
           rdf:resource="http://purl.org/dc/dcmitype/StillImage" />
        <dc:title></dc:title>
      </cc:Work>
    </rdf:RDF>
  </metadata>
  <g
     id="layer1"
     inkscape:groupmode="layer"
     inkscape:label="Capa 1">
    <path
       d="M 0,0 V 10.583333 H 10.583333 V 0 Z m 8.0610527,4.7951602 c 0.6339771,0 1.0898704,0.2208307 1.4175446,0.7978211 L 8.7021541,6.0916101 C 8.5311941,5.7853066 8.3459861,5.6642085 8.0610527,5.6642085 c -0.2920575,0 -0.4772709,0.185208 -0.4772709,0.4274016 0,0.2991803 0.1852107,0.4202917 0.6126112,0.6054981 l 0.2493051,0.1068502 c 0.8476773,0.3632912 1.3249402,0.7337013 1.3249402,1.5671327 0,0.8975414 -0.7052,1.3890544 -1.6526048,1.3890544 -0.9260346,0 -1.5243989,-0.4416437 -1.8164559,-1.0186346 L 7.1136442,8.2713535 c 0.2137003,0.3490438 0.4915008,0.6054982 0.9830112,0.6054982 0.4131547,0 0.6767253,-0.2065814 0.6767253,-0.4915152 0,-0.3419206 -0.2706805,-0.4630261 -0.7265738,-0.6624805 L 7.7974821,7.6160058 C 7.0780245,7.3097024 6.6007509,6.9250496 6.6007509,6.1129882 c 0,-0.7479514 0.5698827,-1.317828 1.4603018,-1.317828 z M 2.728889,4.8521616 h 0.9972568 v 3.967689 H 5.9201541 V 9.6960314 H 2.728889 Z"
       style="fill:#2a2aff;fill-opacity:1;stroke-width:0.529165;stroke-linecap:round;paint-order:markers stroke fill"
       id="rect861" />
  </g>
</svg>
