<?xml version="1.0" encoding="UTF-8" standalone="no"?>
<svg
   xmlns:dc="http://purl.org/dc/elements/1.1/"
   xmlns:cc="http://creativecommons.org/ns#"
   xmlns:rdf="http://www.w3.org/1999/02/22-rdf-syntax-ns#"
   xmlns:svg="http://www.w3.org/2000/svg"
   xmlns="http://www.w3.org/2000/svg"
   xmlns:sodipodi="http://sodipodi.sourceforge.net/DTD/sodipodi-0.dtd"
   xmlns:inkscape="http://www.inkscape.org/namespaces/inkscape"
   sodipodi:docname="logo-small.svg"
   inkscape:version="1.0 (4035a4f, 2020-05-01)"
   id="svg8"
   version="1.1"
   viewBox="0 0 39.687499 39.6875"
   height="150"
   width="150">
  <defs
     id="defs2" />
  <sodipodi:namedview
     inkscape:window-maximized="0"
     inkscape:window-y="25"
     inkscape:window-x="0"
     inkscape:window-height="641"
     inkscape:window-width="1251"
     units="px"
     inkscape:snap-global="false"
     showgrid="false"
     inkscape:document-rotation="0"
     inkscape:current-layer="layer1"
     inkscape:document-units="mm"
     inkscape:cy="141.77243"
     inkscape:cx="194.45801"
     inkscape:zoom="0.87849296"
     inkscape:pageshadow="2"
     inkscape:pageopacity="0.0"
     borderopacity="1.0"
     bordercolor="#666666"
     pagecolor="#ffffff"
     id="base" />
  <metadata
     id="metadata5">
    <rdf:RDF>
      <cc:Work
         rdf:about="">
        <dc:format>image/svg+xml</dc:format>
        <dc:type
           rdf:resource="http://purl.org/dc/dcmitype/StillImage" />
        <dc:title></dc:title>
      </cc:Work>
    </rdf:RDF>
  </metadata>
  <g
     id="layer1"
     inkscape:groupmode="layer"
     inkscape:label="Capa 1">
    <path
       d="M 0,0 V 39.6875 H 39.6875 V 0 Z m 30.228947,17.981851 c 2.377416,0 4.087015,0.828115 5.315794,2.991829 l -2.911662,1.869858 c -0.641101,-1.148639 -1.335632,-1.602756 -2.404132,-1.602756 -1.095215,0 -1.789766,0.69453 -1.789766,1.602756 0,1.121927 0.694541,1.576093 2.297293,2.270619 l 0.934893,0.400687 c 3.178791,1.362342 4.968527,2.751381 4.968527,5.876748 0,3.365781 -2.644499,5.208954 -6.197268,5.208954 -3.47263,0 -5.716496,-1.656164 -6.811709,-3.81988 l 3.045249,-1.763091 c 0.801376,1.308915 1.843129,2.270619 3.686293,2.270619 1.549329,0 2.53772,-0.774681 2.53772,-1.843183 0,-1.282201 -1.015052,-1.736348 -2.724653,-2.484301 l -0.934967,-0.400688 c -2.697967,-1.148639 -4.487743,-2.591087 -4.487743,-5.636317 0,-2.804817 2.137061,-4.941854 5.476131,-4.941854 z m -19.995613,0.213755 h 3.739713 V 33.07444 h 8.227531 v 3.285678 H 10.233334 Z"
       style="fill:#2a2aff;fill-opacity:1;stroke-width:0.529167;stroke-linecap:round;paint-order:markers stroke fill"
       id="rect861" />
  </g>
</svg>
