<?xml version="1.0" encoding="UTF-8" standalone="no"?>
<svg
   xmlns:dc="http://purl.org/dc/elements/1.1/"
   xmlns:cc="http://creativecommons.org/ns#"
   xmlns:rdf="http://www.w3.org/1999/02/22-rdf-syntax-ns#"
   xmlns:svg="http://www.w3.org/2000/svg"
   xmlns="http://www.w3.org/2000/svg"
   xmlns:sodipodi="http://sodipodi.sourceforge.net/DTD/sodipodi-0.dtd"
   xmlns:inkscape="http://www.inkscape.org/namespaces/inkscape"
   sodipodi:docname="logo-small.svg"
   inkscape:version="1.0 (4035a4f, 2020-05-01)"
   id="svg8"
   version="1.1"
   viewBox="0 0 19.84375 19.84375"
   height="75"
   width="75">
  <defs
     id="defs2" />
  <sodipodi:namedview
     inkscape:window-maximized="0"
     inkscape:window-y="25"
     inkscape:window-x="0"
     inkscape:window-height="641"
     inkscape:window-width="1251"
     units="px"
     inkscape:snap-global="false"
     showgrid="false"
     inkscape:document-rotation="0"
     inkscape:current-layer="layer1"
     inkscape:document-units="mm"
     inkscape:cy="141.77243"
     inkscape:cx="194.45801"
     inkscape:zoom="0.87849296"
     inkscape:pageshadow="2"
     inkscape:pageopacity="0.0"
     borderopacity="1.0"
     bordercolor="#666666"
     pagecolor="#ffffff"
     id="base" />
  <metadata
     id="metadata5">
    <rdf:RDF>
      <cc:Work
         rdf:about="">
        <dc:format>image/svg+xml</dc:format>
        <dc:type
           rdf:resource="http://purl.org/dc/dcmitype/StillImage" />
        <dc:title></dc:title>
      </cc:Work>
    </rdf:RDF>
  </metadata>
  <g
     id="layer1"
     inkscape:groupmode="layer"
     inkscape:label="Capa 1">
    <path
       d="M 0,0 V 19.84375 H 19.84375 V 0 Z m 15.114474,8.9909255 c 1.188707,0 2.043507,0.4140575 2.657896,1.4959145 l -1.455831,0.934929 c -0.32055,-0.574319 -0.667815,-0.801378 -1.202065,-0.801378 -0.547608,0 -0.894883,0.347265 -0.894883,0.801378 0,0.560963 0.34727,0.788047 1.148646,1.135309 l 0.467447,0.200344 c 1.589395,0.681171 2.484263,1.37569 2.484263,2.938374 0,1.68289 -1.32225,2.604477 -3.098634,2.604477 -1.736315,0 -2.858248,-0.828082 -3.405855,-1.90994 l 1.522625,-0.881545 c 0.400688,0.654457 0.921564,1.135309 1.843146,1.135309 0.774665,0 1.26886,-0.38734 1.26886,-0.921591 0,-0.641101 -0.507526,-0.868174 -1.362326,-1.242151 l -0.467484,-0.200344 c -1.348983,-0.574319 -2.243871,-1.295543 -2.243871,-2.818158 0,-1.402409 1.06853,-2.4709275 2.738066,-2.4709275 z M 5.116667,9.097803 h 1.8698565 v 7.439417 h 4.1137655 v 1.642839 H 5.116667 Z"
       style="fill:#2a2aff;fill-opacity:1;stroke-width:0.529165;stroke-linecap:round;paint-order:markers stroke fill"
       id="rect861" />
  </g>
</svg>
