<?xml version="1.0" encoding="UTF-8" standalone="no"?>
<svg
   xmlns:dc="http://purl.org/dc/elements/1.1/"
   xmlns:cc="http://creativecommons.org/ns#"
   xmlns:rdf="http://www.w3.org/1999/02/22-rdf-syntax-ns#"
   xmlns:svg="http://www.w3.org/2000/svg"
   xmlns="http://www.w3.org/2000/svg"
   xmlns:sodipodi="http://sodipodi.sourceforge.net/DTD/sodipodi-0.dtd"
   xmlns:inkscape="http://www.inkscape.org/namespaces/inkscape"
   sodipodi:docname="logo-small.svg"
   inkscape:version="1.0 (4035a4f, 2020-05-01)"
   id="svg8"
   version="1.1"
   viewBox="0 0 13.229167 13.229167"
   height="50"
   width="50">
  <defs
     id="defs2" />
  <sodipodi:namedview
     inkscape:window-maximized="0"
     inkscape:window-y="25"
     inkscape:window-x="0"
     inkscape:window-height="641"
     inkscape:window-width="1251"
     units="px"
     inkscape:snap-global="false"
     showgrid="false"
     inkscape:document-rotation="0"
     inkscape:current-layer="layer1"
     inkscape:document-units="mm"
     inkscape:cy="141.77243"
     inkscape:cx="194.45801"
     inkscape:zoom="0.87849296"
     inkscape:pageshadow="2"
     inkscape:pageopacity="0.0"
     borderopacity="1.0"
     bordercolor="#666666"
     pagecolor="#ffffff"
     id="base" />
  <metadata
     id="metadata5">
    <rdf:RDF>
      <cc:Work
         rdf:about="">
        <dc:format>image/svg+xml</dc:format>
        <dc:type
           rdf:resource="http://purl.org/dc/dcmitype/StillImage" />
        <dc:title></dc:title>
      </cc:Work>
    </rdf:RDF>
  </metadata>
  <g
     id="layer1"
     inkscape:groupmode="layer"
     inkscape:label="Capa 1">
    <path
       d="M 0,0 V 13.229166 H 13.229166 V 0 Z m 10.076316,5.9939502 c 0.792471,0 1.362338,0.2760384 1.771931,0.9972764 l -0.970554,0.623286 c -0.2137,-0.3828794 -0.44521,-0.534252 -0.801377,-0.534252 -0.365072,0 -0.5965887,0.23151 -0.5965887,0.534252 0,0.3739754 0.2315133,0.5253647 0.7657637,0.7568727 l 0.311632,0.1335627 c 1.059596,0.454114 1.656175,0.9171266 1.656175,1.958916 0,1.121927 -0.8815,1.736318 -2.065756,1.736318 -1.1575434,0 -1.9054987,-0.552055 -2.27057,-1.273293 l 1.0150833,-0.587697 c 0.2671253,0.436305 0.614376,0.756873 1.2287637,0.756873 0.516444,0 0.845907,-0.258227 0.845907,-0.614394 0,-0.427401 -0.338351,-0.578783 -0.908217,-0.828101 L 9.7468526,9.5200072 C 8.8475306,9.137128 8.2509386,8.656312 8.2509386,7.6412352 c 0,-0.9349392 0.7123534,-1.647285 1.8253774,-1.647285 z M 3.4111113,6.065202 h 1.246571 v 4.959611 h 2.7425103 v 1.095226 H 3.4111113 Z"
       style="fill:#2a2aff;fill-opacity:1;stroke-width:0.529165;stroke-linecap:round;paint-order:markers stroke fill"
       id="rect861" />
  </g>
</svg>
